<svg id="Layer_1" data-name="Layer 1" xmlns="http://www.w3.org/2000/svg" viewBox="0 0 128 128">
	<defs>
		<style>
			.cls-1{fill:#ed2024;}.cls-2{fill:#fff;}
		</style>
	</defs>
	<path class="cls-1" d="M110,40.74a12.05,12.05,0,0,0-8.48-8.54c-7.49-2-37.51-2-37.51-2s-30,0-37.51,2A12.05,12.05,0,0,0,18,40.74C16,48.28,16,64,16,64s0,15.72,2,23.26a12.05,12.05,0,0,0,8.48,8.54c7.49,2,37.51,2,37.51,2s30,0,37.51-2A12.05,12.05,0,0,0,110,87.26c2-7.54,2-23.26,2-23.26s0-15.72-2-23.26Z" />
	<path class="cls-2" d="M31.72,43.58a4.28,4.28,0,0,0-4.28,4.28V80.13a4.29,4.29,0,0,0,4.28,4.29H96.27a4.29,4.29,0,0,0,4.29-4.29V47.86a4.28,4.28,0,0,0-4.29-4.28ZM96.27,80.13H31.72V47.86H96.27C96.28,80.87,96.29,80.13,96.27,80.13Z" />
	<path class="cls-2" d="M41.17,71H38.94a2.18,2.18,0,0,0-2.19,1.89,2.15,2.15,0,0,0,2.13,2.39h2.23a2.18,2.18,0,0,0,2.18-1.9A2.13,2.13,0,0,0,41.17,71Z" />
	<path class="cls-2" d="M46.82,61.86H44.65a2.17,2.17,0,0,0-2.18,1.9,2.13,2.13,0,0,0,2.12,2.38h2.29A2.14,2.14,0,0,0,49,63.76,2.18,2.18,0,0,0,46.82,61.86Z" />
	<path class="cls-2" d="M56.07,66.14h2.18a2.17,2.17,0,0,0,2.18-1.9,2.14,2.14,0,0,0-2.13-2.38H56a2.14,2.14,0,0,0-2.13,2.38A2.17,2.17,0,0,0,56.07,66.14Z" />
	<path class="cls-2" d="M67.5,66.14h2.17a2.18,2.18,0,0,0,2.19-1.9,2.14,2.14,0,0,0-2.13-2.38H67.44a2.14,2.14,0,0,0-2.13,2.38A2.18,2.18,0,0,0,67.5,66.14Z" />
	<path class="cls-2" d="M81.15,61.86H78.92a2.17,2.17,0,0,0-2.18,1.9,2.14,2.14,0,0,0,2.13,2.38H81.1a2.18,2.18,0,0,0,2.18-1.9A2.14,2.14,0,0,0,81.15,61.86Z" />
	<path class="cls-2" d="M86.81,52.72H84.64a2.18,2.18,0,0,0-2.19,1.9A2.14,2.14,0,0,0,84.58,57h2.28A2.14,2.14,0,0,0,89,54.62,2.17,2.17,0,0,0,86.81,52.72Z" />
	<path class="cls-2" d="M73.15,57h2.23a2.18,2.18,0,0,0,2.19-1.9,2.14,2.14,0,0,0-2.13-2.38H73.21A2.17,2.17,0,0,0,71,54.62,2.13,2.13,0,0,0,73.15,57Z" />
	<path class="cls-2" d="M61.73,57H64a2.17,2.17,0,0,0,2.18-1.9A2.13,2.13,0,0,0,64,52.72H61.79a2.18,2.18,0,0,0-2.19,1.9A2.14,2.14,0,0,0,61.73,57Z" />
	<path class="cls-2" d="M50.31,57h2.22a2.18,2.18,0,0,0,2.19-1.9,2.14,2.14,0,0,0-2.13-2.38H50.36a2.17,2.17,0,0,0-2.18,1.9A2.13,2.13,0,0,0,50.31,57Z" />
	<path class="cls-2" d="M38.88,57h2.23a2.17,2.17,0,0,0,2.18-1.9,2.13,2.13,0,0,0-2.12-2.38H38.94a2.18,2.18,0,0,0-2.19,1.9A2.14,2.14,0,0,0,38.88,57Z" />
	<path class="cls-2" d="M89.15,71H86.92a2.17,2.17,0,0,0-2.18,1.89,2.13,2.13,0,0,0,2.12,2.39h2.23a2.19,2.19,0,0,0,2.19-1.9A2.14,2.14,0,0,0,89.15,71Z" />
	<path class="cls-2" d="M77.72,71H50.36a2.17,2.17,0,0,0-2.18,1.89,2.14,2.14,0,0,0,2.13,2.39H77.67a2.18,2.18,0,0,0,2.18-1.9A2.13,2.13,0,0,0,77.72,71Z" />
</svg>
